<svg width="36" height="36" viewBox="0 0 36 36" fill="none" xmlns="http://www.w3.org/2000/svg">
<path d="M18.0001 35.7744C27.9412 35.7744 36.0001 33.3746 36.0001 30.4144C36.0001 27.4541 27.9412 25.0544 18.0001 25.0544C8.059 25.0544 0.00012207 27.4541 0.00012207 30.4144C0.00012207 33.3746 8.059 35.7744 18.0001 35.7744Z" fill="#3B88C3"/>
<path d="M33.8131 28.4124C33.8131 30.0284 31.3131 30.9994 19.3311 30.9994C8.40612 30.9994 5.71912 30.0284 5.71912 28.4124C5.71912 26.7964 11.4021 25.4864 19.3311 25.4864C27.2601 25.4864 33.8131 26.7964 33.8131 28.4124Z" fill="#88C9F9"/>
<path d="M7.00012 28.1244C7.00012 27.1244 8.00012 23.1244 18.0001 23.1244C30.0001 23.1244 33.0001 27.1244 33.0001 28.1244C33.0001 29.1244 33.0001 30.1244 19.0001 30.1244C7.00012 30.1244 7.00012 29.1244 7.00012 28.1244Z" fill="#F4900C"/>
<path d="M20.6201 27.5414C20.4701 28.2334 19.7851 28.6744 19.0931 28.5234C18.4001 28.3734 17.9601 27.6894 18.1101 26.9964L23.1931 1.01138C23.3431 0.318382 24.0271 -0.120618 24.7201 0.0293824C25.4111 0.179382 25.8531 0.863383 25.7011 1.55638L20.6201 27.5414Z" fill="#66757F"/>
<path d="M24.3581 1.70137C16.7361 0.0473742 9.50107 3.57437 8.19807 9.57937C8.19807 9.57937 7.83507 11.2514 8.67207 11.4334C9.50807 11.6154 11.5441 10.3054 11.5441 10.3054L32.4521 14.8434C32.4521 14.8434 33.7611 16.8794 34.5981 17.0614C35.4351 17.2434 35.7971 15.5704 35.7971 15.5704C37.1011 9.56437 31.9791 3.35537 24.3581 1.70137Z" fill="#DD2E44"/>
<path d="M24.3581 1.70139C18.5841 0.448395 12.8471 4.30039 11.5441 10.3044C11.5441 10.3044 11.1811 11.9774 12.8541 12.3404C14.5271 12.7044 17.3991 11.5754 17.3991 11.5754L26.5981 13.5724C26.5981 13.5724 28.7441 15.7894 30.4171 16.1534C32.0901 16.5154 32.4521 14.8424 32.4521 14.8424C33.7551 8.83839 30.1311 2.95439 24.3581 1.70139Z" fill="#FFE8B6"/>
<path d="M24.3581 1.70139C21.3551 1.05039 18.7011 5.57138 17.3981 11.5754C17.3981 11.5754 19.5441 13.7934 21.2161 14.1554L22.0531 14.3384C23.7261 14.7004 26.5971 13.5724 26.5971 13.5724C27.9011 7.56838 27.3611 2.35339 24.3581 1.70139Z" fill="#DD2E44"/>
<path d="M15.8442 27.8224C16.3132 27.3954 17.5942 27.4964 18.3442 27.2204C19.0942 26.9444 19.5632 26.5934 20.1882 26.8444C20.8132 27.0954 21.0002 27.4714 21.5942 27.5224C22.1882 27.5734 22.6252 27.9244 22.3752 28.2004C22.1252 28.4764 20.1562 28.5764 18.8442 28.5764C17.5322 28.5764 15.2652 28.3504 15.8442 27.8224Z" fill="#FFAC33"/>
</svg>
